<svg width="180" height="126" viewBox="0 0 180 126" fill="none" xmlns="http://www.w3.org/2000/svg">
<g clip-path="url(#clip0_1_4008)">
<path d="M13.0772 99.5104C13.5534 99.5104 13.9632 99.2982 14.3066 98.8737C14.6493 98.4496 14.8208 97.9352 14.8208 97.3307C14.8208 96.7263 14.6493 96.2119 14.3066 95.7876C13.9635 95.3633 13.5537 95.1508 13.0772 95.1508H5.23096V99.5102H13.0772V99.5104ZM5.23096 101.376V112.587H0V89.9208H13.0772C15.0066 89.9208 16.6515 90.6443 18.0116 92.0916C19.3716 93.5387 20.0518 95.2853 20.0518 97.3312C20.0518 99.3771 19.3719 101.121 18.0116 102.562C16.9885 103.655 15.8088 104.335 14.4723 104.602L20.0518 112.588H13.0772L5.23096 101.376V101.376Z" fill="white"/>
<path d="M24.0953 107.357H41.5312V112.587H24.1127L24.0953 107.357ZM24.0953 98.6385H38.9333V103.869H24.0953V98.6385ZM41.5312 89.9207L38.9159 95.1512H24.0953V89.9207H41.5312Z" fill="white"/>
<path d="M45.5751 107.357H63.0112V112.587H45.5927L45.5751 107.357ZM45.5751 98.6385H60.4131V103.869H45.5751V98.6385ZM63.0112 89.9207L60.3959 95.1512H45.5753V89.9207H63.0114H63.0112Z" fill="white"/>
<path d="M80.1319 99.5104C80.6081 99.5104 81.0179 99.2982 81.3613 98.8737C81.704 98.4496 81.8755 97.9352 81.8755 97.3307C81.8755 96.7263 81.704 96.2119 81.3613 95.7876C81.0182 95.3633 80.6084 95.1508 80.1319 95.1508H72.2857V99.5102H80.1319V99.5104ZM72.2857 101.376V112.587H67.0549V89.9208H80.1321C82.0616 89.9208 83.7064 90.6443 85.0665 92.0916C86.4266 93.5387 87.1067 95.2853 87.1067 97.3312C87.1067 99.3771 86.4268 101.121 85.0665 102.562C84.0435 103.655 82.864 104.335 81.5272 104.602L87.1067 112.588H80.1323L72.2861 101.376L72.2857 101.376Z" fill="#E57E38"/>
<path d="M97.9151 96.9387C96.8921 98.1299 96.3808 99.5686 96.3808 101.254C96.3808 102.939 96.8918 104.378 97.9151 105.569C98.9377 106.761 100.17 107.356 101.612 107.356C103.053 107.356 104.285 106.761 105.308 105.569C106.331 104.378 106.842 102.939 106.842 101.254C106.842 99.5686 106.331 98.1299 105.308 96.9387C104.285 95.747 103.053 95.1512 101.612 95.1512C100.17 95.1512 98.9377 95.747 97.9151 96.9387ZM109.013 93.242C111.053 95.4563 112.073 98.1272 112.073 101.254C112.073 104.381 111.053 107.051 109.013 109.266C106.973 111.48 104.506 112.587 101.612 112.587C98.7176 112.587 96.2499 111.48 94.2101 109.266C92.1699 107.051 91.1503 104.381 91.1503 101.254C91.1503 98.1272 92.1701 95.4563 94.2101 93.242C96.2499 91.0278 98.7176 89.9207 101.612 89.9207C104.506 89.9207 106.973 91.0278 109.013 93.242Z" fill="#E57E38"/>
<path d="M116.117 101.254V89.9207H121.348V101.254C121.348 102.939 121.86 104.378 122.882 105.569C123.905 106.761 125.137 107.356 126.579 107.356C128.02 107.356 129.252 106.761 130.275 105.569C131.298 104.378 131.809 102.939 131.809 101.254V89.9207H137.04V101.254C137.04 104.381 136.02 107.052 133.981 109.266C131.94 111.48 129.473 112.587 126.579 112.587C123.684 112.587 121.217 111.48 119.177 109.266C117.137 107.052 116.117 104.381 116.117 101.254H116.117Z" fill="#E57E38"/>
<path d="M147.186 95.1512H141.084V89.9207H158.52L155.905 95.1512H152.417V112.587H147.204L147.186 95.1512Z" fill="#E57E38"/>
<path d="M162.564 107.357H180V112.587H162.581L162.564 107.357H162.564ZM162.564 98.6385H177.402V103.869H162.564V98.6385ZM180 89.9207L177.385 95.1512H162.564V89.9207H180H180Z" fill="#E57E38"/>
<path d="M33.4685 122.238C33.4685 121.093 32.6276 120.268 31.4988 120.268C30.3698 120.268 29.5289 121.093 29.5289 122.238C29.5289 123.383 30.3698 124.208 31.4988 124.208C32.6276 124.208 33.4685 123.383 33.4685 122.238ZM28.4799 122.238C28.4799 120.581 29.7613 119.355 31.4988 119.355C33.2364 119.355 34.5178 120.572 34.5178 122.238C34.5178 123.904 33.2364 125.121 31.4988 125.121C29.761 125.121 28.4799 123.896 28.4799 122.238Z" fill="white"/>
<path d="M41.2455 119.435V125.041H40.3888L37.298 121.245V125.041H36.2648V119.435H37.1217L40.2125 123.231V119.435H41.2455Z" fill="white"/>
<path d="M47.3816 120.316H45.5236V119.435H50.2803V120.316H48.4225V125.041H47.3816V120.316Z" fill="white"/>
<path d="M56.6873 119.435V125.041H55.6464V122.638H52.7477V125.041H51.7068V119.435H52.7477V121.75H55.6464V119.435H56.6873Z" fill="white"/>
<path d="M63.0389 124.168V125.04H58.8351V119.435H62.927V120.308H59.876V121.765H62.5826V122.622H59.876V124.168H63.0389Z" fill="white"/>
<path d="M69.9514 120.316H68.7341V122.55H69.9514C70.8643 122.55 71.3367 122.134 71.3367 121.429C71.3367 120.724 70.8643 120.316 69.9514 120.316ZM71.3607 125.041L70.2156 123.399C70.1435 123.407 70.0714 123.407 69.9993 123.407H68.7341V125.041H67.6932V119.435H69.9993C71.4728 119.435 72.3856 120.188 72.3856 121.429C72.3856 122.278 71.9531 122.903 71.1921 123.199L72.4816 125.041H71.3605H71.3607Z" fill="white"/>
<path d="M78.777 122.238C78.777 121.093 77.9361 120.268 76.807 120.268C75.678 120.268 74.8371 121.093 74.8371 122.238C74.8371 123.383 75.678 124.208 76.807 124.208C77.9359 124.208 78.777 123.383 78.777 122.238ZM73.7881 122.238C73.7881 120.581 75.0695 119.355 76.807 119.355C78.5446 119.355 79.826 120.572 79.826 122.238C79.826 123.904 78.5446 125.121 76.807 125.121C75.0695 125.121 73.7881 123.896 73.7881 122.238Z" fill="white"/>
<path d="M84.7844 122.926L83.7274 120.476L82.6781 122.926H84.7841H84.7844ZM85.1286 123.743H82.326L81.7735 125.041H80.7003L83.2229 119.435H84.248L86.7782 125.041H85.6892L85.1286 123.743Z" fill="white"/>
<path d="M90.5355 124.16C91.7844 124.16 92.5934 123.399 92.5934 122.238C92.5934 121.077 91.7841 120.316 90.5355 120.316H89.1741V124.16H90.5355V124.16ZM88.1332 119.435H90.5834C92.4012 119.435 93.6426 120.557 93.6426 122.238C93.6426 123.92 92.401 125.041 90.5834 125.041H88.1332V119.435V119.435Z" fill="white"/>
<path d="M99.3778 120.316H97.5198V119.435H102.277V120.316H100.419V125.041H99.3778V120.316Z" fill="white"/>
<path d="M108.211 122.238C108.211 121.093 107.371 120.268 106.242 120.268C105.112 120.268 104.271 121.093 104.271 122.238C104.271 123.383 105.112 124.208 106.242 124.208C107.371 124.208 108.211 123.383 108.211 122.238ZM103.223 122.238C103.223 120.581 104.504 119.355 106.242 119.355C107.979 119.355 109.261 120.572 109.261 122.238C109.261 123.904 107.979 125.121 106.242 125.121C104.504 125.121 103.223 123.896 103.223 122.238Z" fill="white"/>
<path d="M113.387 124.448L113.747 123.64C114.195 124 114.908 124.256 115.597 124.256C116.469 124.256 116.838 123.944 116.838 123.527C116.838 122.318 113.507 123.111 113.507 121.029C113.507 120.124 114.228 119.355 115.765 119.355C116.438 119.355 117.142 119.531 117.631 119.852L117.303 120.66C116.798 120.364 116.246 120.22 115.757 120.22C114.892 120.22 114.54 120.556 114.54 120.981C114.54 122.174 117.863 121.397 117.863 123.455C117.863 124.352 117.134 125.121 115.597 125.121C114.724 125.121 113.851 124.849 113.387 124.448Z" fill="white"/>
<path d="M119.49 122.598V119.435H120.53V122.559C120.53 123.712 121.051 124.208 121.956 124.208C122.86 124.208 123.373 123.712 123.373 122.559V119.435H124.398V122.598C124.398 124.232 123.477 125.121 121.948 125.121C120.41 125.121 119.49 124.232 119.49 122.598Z" fill="white"/>
<path d="M126.098 122.238C126.098 120.564 127.379 119.355 129.1 119.355C130.013 119.355 130.798 119.683 131.319 120.292L130.646 120.925C130.238 120.484 129.733 120.268 129.148 120.268C127.987 120.268 127.146 121.085 127.146 122.238C127.146 123.391 127.987 124.208 129.148 124.208C129.733 124.208 130.238 123.991 130.646 123.543L131.319 124.184C130.798 124.793 130.013 125.121 129.093 125.121C127.379 125.121 126.098 123.912 126.098 122.238H126.098Z" fill="white"/>
<path d="M132.441 122.238C132.441 120.564 133.722 119.355 135.443 119.355C136.356 119.355 137.141 119.683 137.661 120.292L136.989 120.925C136.581 120.484 136.076 120.268 135.491 120.268C134.33 120.268 133.489 121.085 133.489 122.238C133.489 123.391 134.33 124.208 135.491 124.208C136.076 124.208 136.581 123.991 136.989 123.543L137.661 124.184C137.141 124.793 136.356 125.121 135.435 125.121C133.722 125.121 132.441 123.912 132.441 122.238Z" fill="white"/>
<path d="M143.508 124.168V125.04H139.304V119.435H143.396V120.308H140.345V121.765H143.052V122.622H140.345V124.168H143.508Z" fill="white"/>
<path d="M144.839 124.448L145.2 123.64C145.648 124 146.361 124.256 147.049 124.256C147.922 124.256 148.291 123.944 148.291 123.527C148.291 122.318 144.959 123.111 144.959 121.029C144.959 120.124 145.68 119.355 147.218 119.355C147.89 119.355 148.595 119.531 149.084 119.852L148.755 120.66C148.251 120.364 147.698 120.22 147.21 120.22C146.345 120.22 145.993 120.556 145.993 120.981C145.993 122.174 149.316 121.397 149.316 123.455C149.316 124.352 148.587 125.121 147.05 125.121C146.177 125.121 145.304 124.849 144.84 124.448H144.839Z" fill="white"/>
<path d="M150.518 124.448L150.878 123.64C151.326 124 152.039 124.256 152.728 124.256C153.6 124.256 153.969 123.944 153.969 123.527C153.969 122.318 150.638 123.111 150.638 121.029C150.638 120.124 151.359 119.355 152.896 119.355C153.569 119.355 154.273 119.531 154.762 119.852L154.434 120.66C153.929 120.364 153.377 120.22 152.888 120.22C152.023 120.22 151.671 120.556 151.671 120.981C151.671 122.174 154.994 121.397 154.994 123.455C154.994 124.352 154.265 125.121 152.728 125.121C151.855 125.121 150.982 124.849 150.518 124.448H150.518Z" fill="white"/>
<path d="M135.415 42.3786C135.415 42.3786 131.702 48.4513 124.761 51.9671C124.761 51.9671 120.073 54.5078 110.787 54.557H98.6767V54.9501C98.6684 55.2207 98.6683 55.4992 98.6604 55.7697C98.6358 56.6877 97.9638 57.0893 97.1772 56.6384C93.4808 54.524 89.8014 52.4016 86.1296 50.2705C85.4085 49.8528 85.4085 49.0001 86.1296 48.5822C89.8176 46.4516 93.4975 44.3207 97.1935 42.2226C97.4638 42.075 97.9801 42.0588 98.2097 42.2226C98.4638 42.4109 98.636 42.8781 98.6523 43.2224C98.6607 43.4846 98.6686 43.7468 98.6686 44.0092V44.3123H109.96C110.164 44.3207 110.509 44.3288 110.968 44.3207C114.221 44.2633 123.097 43.3698 126.957 35.7726C126.957 35.7726 131.948 26.2987 126.449 18.1279C126.449 18.1279 121.933 11.4406 114.049 10.7191H68.4989C53.747 13.6449 54.5994 28.1509 54.5994 28.4131L54.5748 71.6934C54.5748 74.4635 52.3291 76.7008 49.5671 76.7008C46.8052 76.7008 44.56 74.4635 44.56 71.6934V28.6097C44.56 28.6097 43.5025 18.0949 49.1492 10.678C49.1492 10.678 56.091 0.769604 69.3183 -0.000732422H114.393C114.393 -0.000732422 128.375 0.244972 135.702 12.2923C135.702 12.2923 144.577 26.8566 135.415 42.3786Z" fill="white"/>
<path d="M110.967 44.321C110.508 44.3293 110.164 44.321 109.959 44.3126H110.73C110.812 44.3126 110.894 44.3126 110.967 44.321Z" fill="#F79633"/>
<path d="M119.36 27.9956C115.688 30.1346 112.008 32.257 108.312 34.3635C107.525 34.8142 106.853 34.4128 106.829 33.503C106.82 33.2243 106.82 32.9456 106.812 32.6752V32.3556H95.1747C95.1091 32.3556 95.0436 32.3556 94.9862 32.3472H94.9371C86.5941 32.5932 82.5293 36.6417 82.5293 36.6417C74.2027 43.657 77.3742 54.475 77.3742 54.475C80.5318 65.8706 90.6989 66.4977 90.6989 66.4977L111.844 66.4893C114.639 66.4893 116.901 68.7513 116.901 71.5541V71.6689C116.901 74.4637 114.639 76.7256 111.844 76.7256H95.0682C81.4002 76.7256 76.3941 72.3948 72.0307 67.9323C68.5287 64.2325 66.8909 58.4853 66.72 55.7288C66.3436 49.657 66.3594 37.7645 66.72 31.5276C67.2118 23.0372 75.9235 22.103 75.9235 22.103H96.1501L96.1582 22.1111H106.82V21.7341C106.82 21.4721 106.829 21.2097 106.837 20.9473C106.853 20.6032 107.025 20.1444 107.279 19.9556C107.509 19.7918 108.025 19.808 108.296 19.9556C111.992 22.0453 115.671 24.1762 119.359 26.3073C120.08 26.7252 120.08 27.5858 119.359 27.9956H119.36Z" fill="#E57E38"/>
</g>
<defs>
<clipPath id="clip0_1_4008">
<rect width="180" height="125.121" fill="white"/>
</clipPath>
</defs>
</svg>
